<svg xmlns="http://www.w3.org/2000/svg" xmlns:xlink="http://www.w3.org/1999/xlink" width="512" zoomAndPan="magnify" viewBox="0 0 384 383.999986" height="512" preserveAspectRatio="xMidYMid meet" version="1.2"><g id="ed91ed1075"><path style=" stroke:none;fill-rule:nonzero;fill:#ffffff;fill-opacity:1;" d="M 211.261719 13.183594 C 219.101562 17.242188 226.527344 23.09375 231.976562 30.066406 C 233.324219 31.761719 234.800781 33.082031 236.464844 34.445312 C 244.199219 40.800781 249.804688 49.367188 254.667969 58.023438 L 255.085938 58.761719 C 256.34375 61.042969 257.417969 63.40625 258.488281 65.777344 L 259.316406 65.683594 C 276.953125 63.753906 295.171875 63.277344 311.820312 70.398438 L 312.570312 70.71875 C 320.820312 74.308594 328.398438 79.753906 333.957031 86.890625 C 335.824219 89.242188 338.105469 91.074219 340.386719 93.007812 C 343.242188 95.445312 345.507812 98.332031 347.734375 101.332031 L 348.199219 101.960938 C 353.925781 109.808594 357.109375 118.941406 358.1875 128.554688 C 358.285156 129.671875 358.351562 130.789062 358.398438 131.910156 L 358.445312 132.804688 C 358.75 145.039062 354.914062 157.324219 349.511719 168.179688 L 349.101562 169.011719 C 345.890625 175.464844 342.089844 181.601562 337.777344 187.378906 L 337.269531 188.066406 C 334.867188 191.300781 332.421875 194.503906 329.957031 197.6875 C 330.425781 198.703125 330.953125 199.519531 331.675781 200.371094 L 332.28125 201.097656 C 332.496094 201.351562 332.710938 201.605469 332.933594 201.867188 C 344.1875 215.386719 353.265625 230.714844 356.621094 248.179688 C 358.453125 258.894531 358.207031 269.941406 354.5625 280.277344 C 351.910156 287.359375 348.023438 293.734375 342.835938 299.238281 C 342.195312 299.929688 341.585938 300.640625 341 301.378906 C 335.570312 307.742188 326.992188 312.144531 319.292969 314.996094 C 311.621094 317.714844 303.402344 319.335938 295.25 319.347656 L 294.300781 319.351562 C 293.296875 319.355469 292.292969 319.355469 291.289062 319.355469 L 290.25 319.355469 C 285.316406 319.347656 280.449219 319.25 275.554688 318.578125 L 274.59375 318.449219 C 272.421875 318.160156 270.253906 317.847656 268.089844 317.511719 L 266.59375 317.285156 C 265.550781 317.125 264.507812 316.964844 263.464844 316.800781 L 263.21875 317.417969 C 262.246094 319.824219 261.261719 322.226562 260.265625 324.621094 L 259.90625 325.496094 C 254.738281 337.824219 247.398438 349.058594 238.222656 358.753906 L 237.277344 359.757812 C 233.238281 363.929688 228.667969 367.246094 223.644531 370.132812 L 222.976562 370.519531 C 215.71875 374.605469 207.417969 376.875 199.109375 377.246094 L 198.140625 377.289062 C 187.320312 377.527344 177.234375 374.179688 167.835938 369.035156 C 161.261719 365.3125 154.980469 360.253906 150.265625 354.332031 C 148.703125 352.386719 146.964844 350.769531 145.066406 349.15625 C 141.632812 346.199219 138.707031 343.113281 135.972656 339.507812 C 135.640625 339.074219 135.3125 338.644531 134.980469 338.210938 C 131.050781 333.113281 127.875 327.605469 124.890625 321.910156 L 124.320312 320.832031 C 123.023438 318.3125 123.023438 318.3125 123.023438 317.511719 L 122.328125 317.644531 C 107.335938 320.480469 91.503906 320.203125 76.800781 316.089844 L 76.019531 315.875 C 70.25 314.261719 64.535156 311.492188 59.734375 307.910156 L 58.890625 307.292969 C 55.125 304.453125 51.550781 301.210938 48.644531 297.488281 C 47.4375 295.984375 46.171875 294.75 44.6875 293.535156 C 36.785156 287.050781 31.03125 278.703125 27.378906 269.15625 C 25.085938 263.070312 23.671875 256.464844 23.464844 249.957031 L 23.421875 248.6875 C 23.1875 234.804688 27.730469 221.886719 34.339844 209.816406 C 38.738281 202.058594 44.007812 194.382812 50.027344 187.78125 C 50.585938 187.183594 50.585938 187.183594 51.199219 186.3125 C 51.105469 185.496094 50.910156 184.984375 50.453125 184.308594 L 49.960938 183.730469 L 49.40625 183.066406 L 48.800781 182.355469 C 37.191406 168.367188 27.609375 151.664062 24.386719 133.609375 C 22.703125 123.070312 23.648438 112.132812 27.386719 102.136719 C 29.644531 96.394531 32.390625 91.226562 36.265625 86.398438 L 36.734375 85.816406 C 42.582031 78.550781 49.996094 73.453125 58.636719 69.984375 C 76.34375 63.257812 95.789062 63.765625 114.21875 66.683594 C 115.257812 66.855469 116.296875 67.027344 117.332031 67.199219 C 118.226562 65.0625 119.113281 62.925781 119.992188 60.78125 C 126.339844 45.347656 135.242188 30.28125 148.621094 19.910156 L 149.183594 19.460938 C 157.222656 13.015625 166.886719 9.152344 176.996094 7.460938 C 188.941406 5.65625 200.492188 7.828125 211.261719 13.183594 "/><path style=" stroke:none;fill-rule:nonzero;fill:#fd5905;fill-opacity:1;" d="M 190.5 42.554688 C 191.503906 42.871094 192.480469 43.265625 193.421875 43.734375 L 194.433594 44.214844 C 196.667969 45.359375 198.617188 46.742188 200.535156 48.355469 L 201.359375 49.011719 C 207.441406 54.097656 211.449219 61.535156 214.753906 68.621094 L 215.085938 69.324219 C 217.707031 74.972656 219.515625 80.957031 221.4375 86.867188 C 221.710938 87.699219 221.988281 88.53125 222.273438 89.359375 C 222.757812 90.871094 222.738281 92.296875 222.578125 93.867188 C 222.179688 95.066406 222.179688 95.066406 221.511719 96 C 220.449219 96.820312 219.582031 97.355469 218.3125 97.777344 C 216.492188 97.953125 214.902344 97.984375 213.199219 97.289062 C 210.992188 95.082031 210.273438 92.207031 209.449219 89.273438 C 206.324219 78.269531 201.445312 66.402344 193.484375 57.972656 C 191.617188 56.214844 189.585938 54.929688 187.109375 54.210938 C 185.433594 53.859375 183.949219 53.789062 182.296875 54.289062 C 179.105469 55.597656 176.46875 57.859375 174.222656 60.445312 C 166.121094 70.964844 161.503906 84 158.222656 96.710938 L 158.003906 97.550781 C 157.585938 99.164062 157.1875 100.78125 156.800781 102.398438 L 156.449219 103.839844 C 155.507812 107.722656 154.71875 111.632812 153.957031 115.554688 L 154.734375 115.691406 C 155.726562 115.910156 156.585938 116.21875 157.523438 116.609375 L 158.5625 117.042969 L 159.667969 117.511719 L 160.820312 117.996094 C 167.398438 120.777344 173.851562 123.800781 180.265625 126.933594 L 181.5 127.535156 C 186.894531 130.171875 192.175781 132.949219 197.378906 135.949219 C 198.433594 136.550781 199.492188 137.144531 200.558594 137.730469 C 209.902344 142.882812 218.804688 148.628906 227.640625 154.597656 C 228.207031 154.980469 228.773438 155.363281 229.339844 155.746094 C 235.402344 159.835938 241.289062 164.136719 247.089844 168.582031 C 248.691406 169.804688 250.296875 171.019531 251.910156 172.222656 C 254.355469 174.054688 256.785156 175.90625 259.199219 177.777344 C 260.984375 176.476562 262.683594 175.136719 264.289062 173.621094 L 264.941406 173.011719 C 267.453125 170.628906 269.902344 168.179688 272.355469 165.734375 L 272.992188 165.101562 C 275.046875 163.054688 277.085938 161.011719 278.96875 158.804688 C 279.671875 157.980469 280.417969 157.191406 281.15625 156.398438 C 283.027344 154.34375 284.753906 152.191406 286.441406 149.980469 C 286.765625 149.554688 287.089844 149.132812 287.417969 148.710938 C 292.601562 142.058594 297.59375 133.953125 299.023438 125.511719 C 299.222656 123 299.371094 120.542969 298.3125 118.199219 C 297.316406 116.507812 296.070312 115.484375 294.398438 114.488281 L 293.785156 114.09375 C 289.636719 111.714844 285.015625 111.484375 280.355469 111.488281 C 255.546875 111.648438 230.398438 121.417969 208.132812 131.628906 L 207.277344 132.019531 L 206.550781 132.359375 C 205.261719 132.855469 204.402344 132.820312 203.023438 132.621094 C 201.390625 131.867188 199.894531 130.820312 198.753906 129.421875 C 198.058594 128.167969 197.945312 126.996094 197.882812 125.566406 C 198.140625 124.355469 198.691406 123.625 199.464844 122.667969 C 200.292969 122.140625 201.03125 121.734375 201.910156 121.332031 L 202.667969 120.972656 C 203.214844 120.71875 203.757812 120.464844 204.304688 120.214844 C 205.148438 119.824219 205.984375 119.429688 206.820312 119.023438 C 212.992188 116.097656 219.386719 113.695312 225.777344 111.289062 L 226.496094 111.019531 C 232.125 108.902344 237.777344 107.082031 243.589844 105.53125 C 244.679688 105.226562 245.757812 104.886719 246.835938 104.542969 C 249.5 103.714844 252.203125 103.125 254.933594 102.554688 C 255.1875 102.503906 255.445312 102.449219 255.707031 102.390625 C 259.929688 101.507812 264.152344 100.738281 268.445312 100.265625 L 269.277344 100.167969 C 272.253906 99.847656 275.230469 99.832031 278.222656 99.824219 C 279.125 99.820312 280.023438 99.8125 280.921875 99.800781 C 288.140625 99.753906 294.859375 100.941406 301.210938 104.488281 C 302.824219 105.46875 304.125 106.734375 305.421875 108.089844 L 306.195312 108.839844 C 308.507812 111.21875 309.921875 114.089844 310.808594 117.277344 C 311.171875 118.839844 311.234375 120.355469 311.222656 121.957031 L 311.214844 122.847656 C 311.046875 131.527344 307.484375 139.796875 303.089844 147.144531 C 298.832031 154.085938 293.847656 160.394531 288.316406 166.355469 C 287.675781 167.046875 287.035156 167.746094 286.402344 168.445312 C 284.144531 170.933594 281.820312 173.34375 279.441406 175.714844 C 278.863281 176.292969 278.285156 176.871094 277.707031 177.453125 C 275.746094 179.414062 273.761719 181.320312 271.644531 183.109375 L 270.746094 183.898438 L 268.800781 185.601562 C 270.265625 187.410156 271.847656 188.945312 273.59375 190.484375 C 274.625 191.410156 275.597656 192.382812 276.558594 193.378906 C 277.246094 194.050781 277.953125 194.671875 278.679688 195.292969 C 280.136719 196.558594 281.453125 197.914062 282.753906 199.332031 L 283.449219 200.082031 C 283.914062 200.585938 284.378906 201.085938 284.84375 201.589844 C 285.457031 202.253906 286.074219 202.914062 286.691406 203.570312 C 288.882812 205.914062 290.980469 208.335938 292.976562 210.84375 L 293.972656 212.0625 C 299.621094 218.980469 304.792969 226.402344 308.265625 234.667969 L 308.683594 235.652344 C 310.847656 241.1875 311.75 246.804688 310.867188 252.710938 C 309.949219 256.914062 308.183594 260.308594 305.4375 263.585938 C 302.527344 266.75 298.625 268.734375 294.621094 270.1875 C 285.820312 272.84375 276.054688 273.265625 267.023438 271.644531 L 266.199219 271.5 C 259.964844 270.398438 253.648438 269.234375 247.589844 267.386719 C 246.703125 267.113281 245.808594 266.863281 244.910156 266.625 C 241.175781 265.605469 241.175781 265.605469 239.890625 264.601562 C 239.207031 263.8125 238.6875 262.976562 238.222656 262.042969 C 238.027344 260.535156 237.980469 259.101562 238.542969 257.671875 C 239.222656 256.515625 239.972656 255.671875 240.957031 254.753906 C 242.269531 254.160156 243.117188 254 244.550781 254.0625 C 247.234375 254.441406 249.839844 255.261719 252.445312 256 C 264.074219 259.257812 277.78125 261.949219 289.777344 259.199219 C 292.5625 258.425781 294.886719 257.394531 296.957031 255.335938 C 298.03125 254.066406 298.667969 253.019531 299.023438 251.378906 C 299.511719 247.253906 298.871094 243.648438 297.285156 239.828125 C 295.039062 234.75 292.324219 229.917969 289.066406 225.421875 L 288.246094 224.289062 C 286.464844 221.875 284.589844 219.546875 282.667969 217.246094 L 282.191406 216.671875 C 280.394531 214.5 278.582031 212.382812 276.554688 210.421875 C 275.917969 209.785156 275.335938 209.128906 274.753906 208.445312 C 272.375 205.683594 269.746094 203.121094 266.972656 200.761719 C 266.246094 200.121094 265.566406 199.445312 264.890625 198.753906 C 262.3125 196.085938 262.3125 196.085938 259.199219 194.132812 L 258.53125 194.683594 C 257.453125 195.570312 256.371094 196.453125 255.289062 197.332031 L 254.695312 197.816406 C 251.113281 200.730469 247.445312 203.515625 243.738281 206.269531 C 242.886719 206.902344 242.035156 207.539062 241.1875 208.179688 C 237.066406 211.269531 232.8125 214.140625 228.507812 216.972656 C 227.46875 217.65625 226.4375 218.347656 225.40625 219.042969 C 216.238281 225.210938 206.671875 230.792969 196.976562 236.089844 L 196.34375 236.433594 C 183.769531 243.296875 170.871094 249.585938 157.621094 255.042969 L 156.628906 255.453125 L 155.730469 255.816406 L 154.945312 256.136719 C 154.3125 256.355469 154.3125 256.355469 153.601562 256.355469 L 153.769531 256.9375 C 154.414062 259.207031 154.953125 261.496094 155.464844 263.800781 C 155.707031 264.859375 155.949219 265.917969 156.191406 266.976562 C 156.359375 267.710938 156.523438 268.449219 156.6875 269.183594 C 160 283.960938 164.988281 301.234375 175.40625 312.636719 C 177.140625 314.398438 178.953125 315.84375 181.042969 317.15625 C 183.300781 317.746094 185.421875 317.832031 187.734375 317.511719 C 189.421875 316.875 190.867188 316.039062 192.355469 315.023438 L 193.070312 314.542969 C 198.132812 310.675781 201.480469 303.671875 203.894531 297.953125 C 206.875 290.632812 209.429688 283.167969 211.554688 275.554688 L 212.09375 273.675781 C 214.273438 265.957031 215.78125 258.128906 217.109375 250.222656 L 217.324219 248.976562 C 218.175781 243.949219 219.003906 238.933594 219.421875 233.847656 C 219.605469 231.757812 219.921875 229.832031 220.800781 227.910156 C 221.398438 227.15625 221.398438 227.15625 222.023438 226.6875 L 222.644531 226.203125 C 223.578125 225.589844 224.355469 225.117188 225.476562 224.960938 C 226.816406 224.953125 227.8125 225.03125 229.089844 225.488281 C 230.132812 226.191406 230.765625 226.871094 231.464844 227.910156 C 232.421875 230.78125 231.574219 234.074219 231.179688 237 L 230.878906 239.246094 L 230.675781 240.746094 C 230.488281 242.136719 230.316406 243.53125 230.15625 244.921875 C 229.050781 254.40625 227.085938 263.824219 224.710938 273.066406 L 224.246094 274.910156 C 223.335938 278.480469 222.316406 282.011719 221.15625 285.511719 L 220.824219 286.519531 C 216.515625 299.488281 211.417969 312.65625 201.601562 322.488281 L 200.820312 323.28125 C 197.894531 326.070312 194.085938 328.304688 190.179688 329.378906 C 186.371094 329.992188 181.996094 330.179688 178.265625 329.066406 C 172.964844 326.863281 168.1875 323.078125 164.683594 318.550781 L 163.910156 317.511719 L 163.050781 316.382812 C 160.628906 313.152344 158.65625 309.714844 156.800781 306.132812 L 156.355469 305.28125 C 153.808594 300.324219 151.882812 295.195312 150.097656 289.925781 C 149.839844 289.160156 149.578125 288.398438 149.3125 287.636719 C 147.554688 282.574219 146.203125 277.445312 144.933594 272.246094 L 144.699219 271.289062 C 143.867188 267.867188 143.074219 264.464844 142.578125 260.976562 L 141.539062 261.351562 C 122.632812 268.128906 100 275.0625 79.714844 271.4375 C 74.507812 270.375 69.679688 268.441406 65.570312 265 C 63.003906 262.542969 61.296875 259.820312 60.078125 256.496094 C 58.714844 251.734375 58.355469 246.492188 59.421875 241.625 C 59.71875 240.472656 60.070312 239.347656 60.445312 238.222656 L 60.675781 237.519531 C 64.59375 225.820312 72.113281 215.445312 80.484375 206.523438 C 81.191406 205.761719 81.878906 204.988281 82.554688 204.199219 C 83.863281 202.699219 85.238281 201.28125 86.644531 199.871094 L 87.410156 199.105469 C 87.9375 198.574219 88.464844 198.046875 88.996094 197.515625 C 89.800781 196.710938 90.605469 195.902344 91.40625 195.089844 L 92.957031 193.539062 L 93.675781 192.808594 C 94.964844 191.527344 96.207031 190.429688 97.777344 189.511719 C 99.339844 189.207031 100.90625 189.277344 102.433594 189.734375 C 103.652344 190.332031 104.433594 191.144531 105.222656 192.246094 C 105.804688 193.289062 106.109375 194.183594 106.199219 195.378906 C 106.125 196.253906 106.019531 196.867188 105.582031 197.636719 C 104.035156 199.65625 102.289062 201.425781 100.464844 203.199219 C 98.625 205.003906 96.820312 206.808594 95.144531 208.769531 C 94.285156 209.761719 93.386719 210.710938 92.488281 211.667969 C 90.605469 213.695312 88.832031 215.789062 87.109375 217.957031 L 86.195312 219.09375 C 80.164062 226.621094 73.164062 235.625 71.261719 245.3125 C 70.910156 247.863281 70.785156 250.449219 71.621094 252.910156 C 72.386719 254.5625 73.445312 255.683594 74.851562 256.824219 C 77.527344 258.640625 80.757812 259.378906 83.910156 259.910156 C 85.90625 260.058594 87.890625 260.066406 89.890625 260.042969 L 90.714844 260.039062 C 95.503906 260.007812 100.164062 259.652344 104.890625 258.84375 L 105.980469 258.664062 C 115.703125 257.042969 124.960938 254.136719 134.238281 250.871094 L 135.167969 250.546875 C 135.746094 250.34375 136.324219 250.136719 136.902344 249.929688 C 138.160156 249.488281 139.09375 249.246094 140.445312 249.246094 L 140.277344 248.300781 C 135.253906 219.683594 134.308594 190.394531 136.179688 161.421875 L 136.242188 160.398438 C 137.0625 147.742188 138.644531 135.214844 140.445312 122.667969 L 139.796875 122.480469 C 137.890625 121.917969 136.003906 121.300781 134.136719 120.621094 C 129.644531 119 125.09375 117.71875 120.464844 116.527344 C 119.617188 116.304688 118.769531 116.078125 117.921875 115.84375 C 114.800781 114.988281 111.652344 114.261719 108.488281 113.589844 C 108.007812 113.484375 107.53125 113.371094 107.054688 113.246094 C 102.1875 112.03125 97.121094 111.882812 92.132812 111.90625 C 91.261719 111.910156 90.390625 111.90625 89.519531 111.902344 C 84.589844 111.898438 79.851562 112.207031 75.378906 114.488281 C 73.679688 115.625 72.265625 116.9375 71.265625 118.734375 C 70.234375 121.46875 70.476562 124.796875 70.921875 127.648438 C 71.167969 128.625 71.472656 129.546875 71.820312 130.488281 L 72.253906 131.710938 C 74.246094 137.121094 77.238281 141.914062 80.710938 146.488281 L 81.175781 147.101562 C 84.6875 151.722656 88.539062 156.0625 92.445312 160.355469 L 93.257812 161.269531 C 95.429688 163.679688 97.6875 165.992188 99.976562 168.289062 L 100.886719 169.203125 C 102.433594 170.746094 104.003906 172.234375 105.660156 173.660156 C 106.652344 174.515625 107.601562 175.414062 108.554688 176.3125 C 110.257812 177.890625 112.015625 179.410156 113.828125 180.859375 C 114.765625 181.625 115.675781 182.402344 116.582031 183.195312 C 118.914062 185.226562 121.3125 187.136719 123.78125 188.996094 C 128.332031 192.417969 128.332031 192.417969 129.066406 194.132812 C 129.246094 195.3125 129.246094 195.3125 129.066406 196.621094 C 128.507812 197.980469 127.746094 199.039062 126.675781 200.042969 C 125.652344 200.789062 124.75 201.183594 123.503906 201.425781 C 122.140625 201.511719 121.007812 201.453125 119.746094 200.898438 C 118.894531 200.355469 118.121094 199.75 117.332031 199.109375 C 116.953125 198.820312 116.570312 198.527344 116.191406 198.238281 C 113.675781 196.304688 111.242188 194.28125 108.832031 192.222656 C 107.804688 191.347656 106.761719 190.492188 105.710938 189.644531 C 104.128906 188.355469 102.601562 187.011719 101.09375 185.640625 C 100.367188 184.980469 99.632812 184.332031 98.890625 183.6875 C 95.535156 180.757812 92.316406 177.707031 89.171875 174.550781 C 88.59375 173.972656 88.015625 173.394531 87.4375 172.820312 C 85.476562 170.859375 83.578125 168.867188 81.777344 166.753906 C 81.277344 166.207031 80.773438 165.65625 80.265625 165.109375 C 76.523438 160.949219 73.269531 156.386719 70.042969 151.820312 L 69.5625 151.148438 C 65.4375 145.367188 62.195312 139.046875 60.089844 132.265625 L 59.707031 131.128906 C 58.378906 127.101562 58.3125 122.824219 58.808594 118.636719 C 59.542969 115.160156 61.183594 111.445312 63.496094 108.722656 C 66.820312 105.261719 70.761719 102.867188 75.351562 101.480469 C 79.332031 100.351562 83.152344 99.851562 87.285156 99.863281 L 88.214844 99.863281 C 88.863281 99.863281 89.507812 99.863281 90.152344 99.863281 C 91.128906 99.867188 92.101562 99.867188 93.074219 99.863281 C 98.4375 99.859375 103.570312 100.261719 108.84375 101.246094 L 109.625 101.386719 C 113.40625 102.085938 117.140625 102.878906 120.832031 103.957031 C 121.617188 104.179688 122.402344 104.394531 123.191406 104.601562 C 129.757812 106.363281 136.160156 108.699219 142.578125 110.933594 L 142.777344 109.84375 C 144.113281 102.578125 145.832031 95.445312 147.988281 88.378906 C 148.226562 87.597656 148.457031 86.816406 148.683594 86.03125 C 152.363281 73.605469 157.53125 60.832031 166.398438 51.199219 L 167.113281 50.398438 C 170.535156 46.742188 174.941406 44.289062 179.621094 42.617188 C 183.054688 41.839844 187.046875 41.929688 190.5 42.554688 "/><path style=" stroke:none;fill-rule:nonzero;fill:#ffffff;fill-opacity:1;" d="M 151.464844 126.933594 C 154.066406 127.746094 156.519531 128.773438 159 129.890625 L 160.261719 130.457031 C 161.601562 131.054688 162.933594 131.660156 164.265625 132.265625 L 164.925781 132.566406 C 174.910156 137.097656 184.648438 142.046875 194.132812 147.554688 L 195.347656 148.257812 C 203.175781 152.78125 210.902344 157.460938 218.394531 162.535156 C 219.359375 163.1875 220.328125 163.839844 221.300781 164.492188 C 229.605469 170.078125 237.695312 175.867188 245.578125 182.042969 L 246.171875 182.511719 C 247.453125 183.519531 248.707031 184.550781 249.957031 185.601562 C 249.496094 186.636719 249.050781 187.285156 248.167969 187.996094 L 247.503906 188.539062 L 246.777344 189.109375 L 246.015625 189.722656 C 243.285156 191.890625 240.472656 193.949219 237.652344 195.996094 C 236.820312 196.605469 235.992188 197.222656 235.167969 197.84375 C 230.730469 201.167969 226.148438 204.25 221.511719 207.289062 L 220.574219 207.902344 C 213.636719 212.46875 206.621094 216.90625 199.371094 220.964844 C 198.351562 221.539062 197.328125 222.117188 196.308594 222.695312 C 183.335938 230.023438 170.140625 236.957031 156.445312 242.84375 L 155.234375 243.363281 L 154.066406 243.859375 L 153.019531 244.304688 C 152.179688 244.621094 152.179688 244.621094 151.464844 244.621094 C 150.371094 237.792969 149.472656 230.988281 148.941406 224.089844 L 148.882812 223.324219 C 148.832031 222.644531 148.78125 221.960938 148.734375 221.28125 C 148.640625 220.109375 148.640625 220.109375 148.445312 219.050781 C 148.226562 217.707031 148.144531 216.371094 148.078125 215.015625 L 148.03125 214.109375 C 147.007812 193.386719 147.101562 172.519531 148.621094 151.820312 L 148.6875 150.933594 C 149.289062 142.902344 150.402344 134.914062 151.464844 126.933594 "/><path style=" stroke:none;fill-rule:nonzero;fill:#fd5905;fill-opacity:1;" d="M 335.644531 89.246094 C 343.628906 94.933594 349.535156 102.570312 353.703125 111.386719 C 357.753906 120.527344 359.015625 130.449219 358.035156 140.339844 C 356.980469 150.050781 353.855469 159.449219 349.511719 168.179688 L 349.101562 169.011719 C 345.890625 175.464844 342.089844 181.601562 337.777344 187.378906 L 337.269531 188.066406 C 334.867188 191.300781 332.421875 194.503906 329.957031 197.6875 C 330.425781 198.703125 330.953125 199.519531 331.675781 200.371094 L 332.28125 201.097656 C 332.496094 201.351562 332.710938 201.605469 332.933594 201.867188 C 344.1875 215.386719 353.265625 230.714844 356.621094 248.179688 C 358.453125 258.894531 358.207031 269.941406 354.5625 280.277344 C 351.910156 287.359375 348.023438 293.734375 342.835938 299.238281 C 342.195312 299.929688 341.585938 300.640625 341 301.378906 C 335.570312 307.742188 326.992188 312.144531 319.292969 314.996094 C 311.621094 317.714844 303.402344 319.335938 295.25 319.347656 L 294.300781 319.351562 C 293.296875 319.355469 292.292969 319.355469 291.289062 319.355469 L 290.25 319.355469 C 285.316406 319.347656 280.449219 319.25 275.554688 318.578125 L 274.59375 318.449219 C 272.421875 318.160156 270.253906 317.847656 268.089844 317.511719 L 266.59375 317.285156 C 265.550781 317.125 264.507812 316.964844 263.464844 316.800781 L 263.21875 317.417969 C 262.246094 319.824219 261.261719 322.226562 260.265625 324.621094 L 259.90625 325.496094 C 254.738281 337.824219 247.398438 349.058594 238.222656 358.753906 L 237.277344 359.757812 C 233.238281 363.929688 228.667969 367.246094 223.644531 370.132812 L 222.976562 370.519531 C 215.71875 374.605469 207.417969 376.875 199.109375 377.246094 L 198.140625 377.289062 C 187.320312 377.527344 177.234375 374.179688 167.835938 369.035156 C 160.78125 365.042969 154.574219 359.578125 149.332031 353.421875 L 149.6875 352.710938 L 150.1875 353.058594 C 153.925781 355.648438 157.65625 357.90625 161.777344 359.820312 L 162.789062 360.328125 C 165.40625 361.605469 168.136719 362.425781 170.941406 363.164062 C 171.445312 363.300781 171.949219 363.441406 172.449219 363.59375 C 179.726562 365.792969 189.324219 365.796875 196.71875 364.078125 C 197.523438 363.863281 198.320312 363.628906 199.109375 363.378906 L 200.035156 363.09375 C 211.226562 359.570312 220.703125 353.125 228.621094 344.535156 C 229.734375 343.261719 230.785156 341.953125 231.820312 340.621094 L 232.671875 339.5625 C 240.246094 330.039062 246.148438 318.773438 250.351562 307.390625 L 250.703125 306.476562 L 250.996094 305.671875 L 251.378906 305.066406 C 252.074219 304.789062 252.074219 304.789062 252.800781 304.710938 C 253.703125 304.871094 253.703125 304.871094 254.800781 305.15625 C 257.3125 305.730469 259.820312 306.0625 262.378906 306.355469 L 263.519531 306.488281 C 268.472656 307.039062 273.390625 307.265625 278.371094 307.265625 C 279.265625 307.265625 280.160156 307.273438 281.054688 307.28125 C 284.691406 307.296875 288.3125 307.03125 291.910156 306.488281 C 292.464844 306.417969 293.015625 306.34375 293.566406 306.273438 C 301.871094 305.015625 310.691406 302.421875 317.867188 297.957031 L 318.46875 297.582031 C 327.292969 292.046875 334.238281 284.691406 339.234375 275.550781 C 343.832031 266.824219 345.964844 257.035156 345.691406 247.195312 C 345.582031 244.644531 345.300781 242.164062 344.890625 239.644531 L 344.679688 238.238281 C 342.175781 222.191406 334.703125 207.734375 324.726562 195.074219 C 324.234375 194.449219 323.75 193.824219 323.261719 193.195312 L 322.246094 191.890625 L 321.75 191.253906 C 320.648438 189.851562 319.492188 188.523438 318.238281 187.253906 L 317.867188 186.667969 C 317.890625 185.992188 317.890625 185.992188 318.222656 185.246094 C 318.699219 184.625 319.195312 184.027344 319.710938 183.445312 C 331.429688 169.769531 340.867188 153.097656 344.890625 135.464844 L 345.066406 134.753906 C 346.023438 130.808594 346.058594 126.835938 346.066406 122.800781 L 346.070312 122.003906 C 346.082031 117 345.753906 112.066406 344.3125 107.246094 L 344.03125 106.296875 C 342.429688 101.042969 340.066406 95.136719 336.449219 90.929688 L 335.644531 89.957031 Z M 335.644531 89.246094 "/><path style=" stroke:none;fill-rule:nonzero;fill:#fd5905;fill-opacity:1;" d="M 192.976562 157.867188 C 193.847656 158.199219 194.707031 158.554688 195.554688 158.933594 L 196.277344 159.246094 C 201.132812 161.371094 205.0625 164.335938 208.355469 168.535156 C 211.105469 172.320312 213.027344 176.683594 213.6875 181.332031 C 214.042969 186.648438 214.089844 191.699219 211.910156 196.621094 L 211.621094 197.285156 C 209.492188 202.113281 206.285156 206.238281 202.0625 209.4375 C 197.800781 212.253906 193.003906 214.386719 187.875 214.835938 C 182.285156 215.152344 177.378906 214.472656 172.332031 212 C 167.664062 209.585938 163.691406 206.449219 160.800781 202.023438 C 158.3125 198.074219 156.328125 193.398438 156.039062 188.695312 C 155.875 184.339844 156.027344 180.492188 157.511719 176.355469 L 157.890625 175.246094 C 159.511719 170.917969 162.472656 166.71875 166.023438 163.777344 C 173.398438 157.902344 183.703125 154.824219 192.976562 157.867188 "/><path style=" stroke:none;fill-rule:nonzero;fill:#fd5905;fill-opacity:1;" d="M 48.355469 296.535156 C 49.785156 297.058594 51.027344 297.75 52.332031 298.535156 C 57.613281 301.597656 63.070312 303.578125 68.976562 305.066406 L 70.28125 305.398438 C 71.5 305.679688 72.722656 305.914062 73.957031 306.132812 L 74.679688 306.277344 C 84.195312 308.15625 94.5 307.652344 104.089844 306.554688 L 104.867188 306.46875 C 107.507812 306.15625 110.117188 305.746094 112.714844 305.195312 C 114.546875 304.8125 116.179688 304.597656 118.042969 304.710938 L 118.308594 305.425781 C 120.5625 311.511719 120.5625 311.511719 123.023438 317.511719 C 107.8125 320.472656 91.742188 320.269531 76.800781 316.089844 L 76.019531 315.875 C 70.25 314.261719 64.535156 311.492188 59.734375 307.910156 L 58.890625 307.292969 C 55.066406 304.410156 51.269531 301.066406 48.355469 297.246094 Z M 48.355469 296.535156 "/><path style=" stroke:none;fill-rule:nonzero;fill:#fd5905;fill-opacity:1;" d="M 192.976562 157.867188 C 193.847656 158.199219 194.707031 158.554688 195.554688 158.933594 L 196.277344 159.246094 C 201.132812 161.371094 205.0625 164.335938 208.355469 168.535156 C 211.105469 172.320312 213.027344 176.683594 213.6875 181.332031 C 214.042969 186.648438 214.089844 191.699219 211.910156 196.621094 L 211.621094 197.285156 C 209.492188 202.113281 206.285156 206.238281 202.0625 209.4375 C 197.800781 212.253906 193.003906 214.386719 187.875 214.835938 C 182.285156 215.152344 177.378906 214.472656 172.332031 212 C 167.664062 209.585938 163.691406 206.449219 160.800781 202.023438 C 158.3125 198.074219 156.328125 193.398438 156.039062 188.695312 C 155.875 184.339844 156.027344 180.492188 157.511719 176.355469 L 157.890625 175.246094 C 159.511719 170.917969 162.472656 166.71875 166.023438 163.777344 C 173.398438 157.902344 183.703125 154.824219 192.976562 157.867188 M 174.933594 161.066406 L 173.625 161.601562 C 170.425781 163.054688 168.109375 164.980469 165.6875 167.464844 L 165.050781 168.097656 C 162.175781 171.148438 160.242188 175.289062 159.230469 179.328125 C 158.394531 183.359375 158.378906 188.417969 159.644531 192.355469 C 161.300781 197.054688 163.753906 201.039062 167.394531 204.492188 C 170.929688 207.488281 175.011719 209.519531 179.511719 210.621094 C 183.550781 211.28125 188.441406 211.257812 192.320312 209.894531 C 195.441406 208.707031 198.277344 207.257812 200.890625 205.15625 L 201.703125 204.527344 C 204.808594 201.984375 207.15625 198.511719 208.6875 194.8125 C 210.371094 190.203125 211.058594 185.847656 210.386719 180.960938 C 209.589844 176.476562 207.457031 172.09375 204.644531 168.535156 C 204.113281 167.929688 203.574219 167.339844 203.023438 166.753906 L 202.296875 165.984375 C 199.136719 162.921875 195.054688 161.078125 190.863281 159.890625 L 189.867188 159.644531 L 189.066406 159.441406 C 184.179688 158.683594 179.472656 159.160156 174.933594 161.066406 "/><path style=" stroke:none;fill-rule:nonzero;fill:#fd5905;fill-opacity:1;" d="M 233.957031 32.710938 C 235.351562 33.289062 236.359375 34.246094 237.445312 35.265625 L 238.019531 35.800781 C 238.5625 36.3125 239.105469 36.820312 239.644531 37.332031 L 240.363281 38.007812 C 248.074219 45.445312 254.390625 55.929688 258.488281 65.777344 L 258.488281 66.132812 C 257.621094 66.3125 256.757812 66.488281 255.890625 66.667969 L 255.144531 66.820312 C 254.105469 67.03125 253.152344 67.199219 252.089844 67.199219 L 251.65625 66.175781 C 246.957031 55.082031 242.253906 44.335938 235.117188 34.539062 C 234.3125 33.421875 234.3125 33.421875 233.957031 32.710938 "/></g></svg>